<?xml version="1.0" encoding="UTF-8"?>
<svg version="1.1" xmlns="http://www.w3.org/2000/svg" width="158" height="179">
<path d="M0 0 C4.2140066 1.28007679 7.80387718 2.87455115 11.58984375 5.1171875 C12.62173828 5.72433594 13.65363281 6.33148438 14.71679688 6.95703125 C16.31104492 7.90642578 16.31104492 7.90642578 17.9375 8.875 C20.05067162 10.12258154 22.16395014 11.36998204 24.27734375 12.6171875 C29.64197428 15.78368544 29.64197428 15.78368544 32.22729492 17.34570312 C35.58511648 19.48651116 35.58511648 19.48651116 39.4375 19.75 C39.953125 19.5025 40.46875 19.255 41 19 C41.0417334 19.58265625 41.0834668 20.1653125 41.12646484 20.765625 C42.46359984 24.18582048 44.81121797 24.99182843 47.9765625 26.75 C48.5800351 27.08999023 49.18350769 27.42998047 49.80526733 27.78027344 C51.73857886 28.86585117 53.68134029 29.93308152 55.625 31 C56.91082656 31.71755015 58.19599109 32.436288 59.48046875 33.15625 C61.8666626 34.49186547 64.25690809 35.81887183 66.65087891 37.140625 C67.75608887 37.75421875 68.86129883 38.3678125 70 39 C70.64136902 39.34740234 71.28273804 39.69480469 71.94354248 40.05273438 C76.88915361 42.77830722 76.88915361 42.77830722 78 45 C79.6879364 58.26839521 79.1521007 71.85745021 79.13037109 85.19775391 C79.12500306 89.12276047 79.1303462 93.04765312 79.13671875 96.97265625 C79.13605802 99.50520858 79.13477695 102.03776084 79.1328125 104.5703125 C79.13483673 105.72483917 79.13686096 106.87936584 79.13894653 108.06887817 C79.12281454 113.75883285 79.0089016 119.44351682 78.73120117 125.12695312 C78.68404465 126.17290649 78.63688812 127.21885986 78.58830261 128.29650879 C77.87384282 131.57974386 76.88313731 132.50222545 74.16796875 134.3984375 C72.46388358 135.30157229 70.73928979 136.16667548 69 137 C67.09547292 138.08801634 65.19589107 139.18472481 63.30078125 140.2890625 C61.30667836 141.40460791 59.31055642 142.51655133 57.3125 143.625 C51.4012842 146.91195408 45.59562515 150.20081979 40 154 C38.67200113 154.67723055 37.33823742 155.34323304 36 156 C33.23474638 157.47227525 30.49254127 158.98590378 27.75 160.5 C26.96165771 160.93417236 26.17331543 161.36834473 25.36108398 161.81567383 C19.08906079 165.30737376 13.00853964 169.05045565 7.04003906 173.0390625 C5.40663988 174.10140836 3.70724401 175.06091028 2 176 C1.01 175.67 0.02 175.34 -1 175 C-1 174.34 -1 173.68 -1 173 C-1.73541016 172.71946777 -2.47082031 172.43893555 -3.22851562 172.14990234 C-5.73648296 171.1093345 -7.99608561 169.95772226 -10.34375 168.6015625 C-11.16746094 168.1281543 -11.99117187 167.65474609 -12.83984375 167.16699219 C-14.15662109 166.40370605 -14.15662109 166.40370605 -15.5 165.625 C-17.38531873 164.53889247 -19.27073833 163.45296004 -21.15625 162.3671875 C-22.60451172 161.5313916 -22.60451172 161.5313916 -24.08203125 160.67871094 C-26.91387224 159.04954941 -29.75219622 157.43246343 -32.59375 155.8203125 C-41.19796325 150.9362151 -49.73354273 145.99905409 -58.12109375 140.75 C-61.95273875 138.42085894 -65.8847931 136.30782441 -69.85546875 134.2265625 C-72 133 -72 133 -74 131 C-74.88853466 125.68175042 -75.18809716 120.40273647 -75.30737305 115.0144043 C-75.32667877 114.26037323 -75.3459845 113.50634216 -75.36587524 112.72946167 C-75.52898083 105.8245122 -75.59266819 98.91861737 -75.62359905 92.01191998 C-75.64596687 87.38627576 -75.70263095 82.76659654 -75.84008789 78.14282227 C-76.69510636 48.3068541 -76.69510636 48.3068541 -72.31359863 41.30508423 C-68.22872974 37.3064504 -63.60093807 35.32124679 -58.18435669 33.69052124 C-55.29121478 32.77593804 -52.87363476 31.3346046 -50.3046875 29.73828125 C-48.83040589 28.92553626 -47.35398779 28.1166491 -45.875 27.3125 C-45.09769531 26.88517578 -44.32039063 26.45785156 -43.51953125 26.01757812 C-41.68175948 25.00793808 -39.84123067 24.00331837 -38 23 C-38.495 21.02 -38.495 21.02 -39 19 C-38.01 19 -37.02 19 -36 19 C-35.505 19.99 -35.505 19.99 -35 21 C-16.512442 11.89065684 -16.512442 11.89065684 0 0 Z M-5.4375 18.81640625 C-6.49839844 19.41646484 -7.55929688 20.01652344 -8.65234375 20.63476562 C-9.75707031 21.27091797 -10.86179688 21.90707031 -12 22.5625 C-13.07378906 23.17158203 -14.14757813 23.78066406 -15.25390625 24.40820312 C-22.53566877 28.54855546 -29.77204158 32.76659777 -37 37 C-36.67 38.32 -36.34 39.64 -36 41 C-36.99 41 -37.98 41 -39 41 C-39.33 40.34 -39.66 39.68 -40 39 C-46.93 42.96 -53.86 46.92 -61 51 C-61.29433439 60.37968806 -61.53252502 69.7562868 -61.67355824 79.13955688 C-61.74126814 83.49729613 -61.83298339 87.85170042 -61.98071289 92.20751953 C-62.1225401 96.41590744 -62.1997985 100.6211017 -62.23340416 104.83169556 C-62.25732998 106.43326128 -62.30406485 108.03466175 -62.37449074 109.63485718 C-62.58873398 114.70706829 -62.57371784 119.13862415 -61 124 C-57.04859197 127.80240831 -53.03150349 129.79597254 -48 132 C-46.59268318 132.81379021 -45.19374269 133.64269971 -43.8125 134.5 C-41.23713235 136.15686275 -41.23713235 136.15686275 -39 136 C-39 135.34 -39 134.68 -39 134 C-38.01 134 -37.02 134 -36 134 C-36.33 135.32 -36.66 136.64 -37 138 C-30.06644426 142.34311759 -23.13820498 146.58112512 -15.90234375 150.40625 C-13.68023357 151.62646662 -11.53281719 152.8870157 -9.37890625 154.21875 C-8.7562085 154.59644531 -8.13351074 154.97414062 -7.49194336 155.36328125 C-6.2714485 156.10639934 -5.05947057 156.86373878 -3.85766602 157.63671875 C-1.9764624 158.82294922 -1.9764624 158.82294922 1 160 C4.46057969 158.91121516 7.52834762 157.23836202 10.67578125 155.453125 C11.57458008 154.94467041 12.47337891 154.43621582 13.39941406 153.91235352 C14.8413916 153.08948853 14.8413916 153.08948853 16.3125 152.25 C17.31635742 151.68015381 18.32021484 151.11030762 19.35449219 150.52319336 C27.83064569 145.69835652 36.25993188 140.79373681 44.6652832 135.84667969 C45.5955835 135.30043945 46.52588379 134.75419922 47.484375 134.19140625 C48.38607422 133.6617627 49.28777344 133.13211914 50.21679688 132.58642578 C54.04905074 130.40204108 57.96209519 128.37821824 61.89160156 126.37475586 C64.30882937 125.11010662 64.30882937 125.11010662 65 122 C65.13487593 119.77873575 65.21084663 117.55374754 65.25634766 115.32885742 C65.27095032 114.65530716 65.28555298 113.9817569 65.30059814 113.28779602 C65.42640237 107.0872433 65.49531205 100.88544018 65.54844093 94.6838789 C65.58423013 90.51999239 65.63761196 86.35803367 65.73388672 82.19506836 C65.82679954 78.16487638 65.8753722 74.13639061 65.89283371 70.10518837 C65.9069098 68.57203425 65.93651066 67.03893889 65.98213577 65.50639915 C66.50286069 57.07575033 66.50286069 57.07575033 63.0728302 49.77319336 C60.76582108 48.21081949 58.55980656 47.08654192 56 46 C54.67662855 45.23773151 53.36083754 44.46188852 52.05859375 43.6640625 C50.85349333 42.98095745 49.64649204 42.30119359 48.4375 41.625 C47.81037109 41.27050781 47.18324219 40.91601562 46.53710938 40.55078125 C45.0264731 39.69744473 43.51349916 38.84824846 42 38 C41.505 39.485 41.505 39.485 41 41 C40.01 41 39.02 41 38 41 C38 40.01 38 39.02 38 38 C38.99 37.505 38.99 37.505 40 37 C39.33581055 36.61255615 38.67162109 36.2251123 37.98730469 35.82592773 C32.79882812 32.79931641 27.61035156 29.77270508 22.421875 26.74609375 C21.36677734 26.13362793 20.31167969 25.52116211 19.22460938 24.89013672 C17.02777887 23.60244276 14.84189001 22.29594104 12.66601562 20.97314453 C11.07563477 20.01384033 11.07563477 20.01384033 9.453125 19.03515625 C8.50083008 18.45258057 7.54853516 17.87000488 6.56738281 17.26977539 C1.73882041 14.8816665 -1.08539624 16.33365506 -5.4375 18.81640625 Z " fill="#06FB9A" transform="translate(77,1)"/>
<path d="M0 0 C9.3357918 4.42505738 18.17461862 9.52486542 27.02587891 14.83691406 C28.98119051 15.98891808 30.96151405 17.08480405 32.94921875 18.1796875 C36 20 36 20 37 22 C38.6879364 35.26839521 38.1521007 48.85745021 38.13037109 62.19775391 C38.12500306 66.12276047 38.1303462 70.04765312 38.13671875 73.97265625 C38.13605802 76.50520858 38.13477695 79.03776084 38.1328125 81.5703125 C38.13483673 82.72483917 38.13686096 83.87936584 38.13894653 85.06887817 C38.12281454 90.75883285 38.0089016 96.44351682 37.73120117 102.12695312 C37.68404465 103.17290649 37.63688812 104.21885986 37.58830261 105.29650879 C36.87384282 108.57974386 35.88313731 109.50222545 33.16796875 111.3984375 C31.46388358 112.30157229 29.73928979 113.16667548 28 114 C26.09547292 115.08801634 24.19589107 116.18472481 22.30078125 117.2890625 C20.30667836 118.40460791 18.31055642 119.51655133 16.3125 120.625 C10.4012842 123.91195408 4.59562515 127.20081979 -1 131 C-2.32920887 131.67485257 -3.66289791 132.34092473 -5 133 C-6.30153882 133.71290483 -7.59832742 134.43453967 -8.890625 135.1640625 C-9.59960938 135.56367188 -10.30859375 135.96328125 -11.0390625 136.375 C-11.76867187 136.7875 -12.49828125 137.2 -13.25 137.625 C-13.99507812 138.04523438 -14.74015625 138.46546875 -15.5078125 138.8984375 C-17.33902763 139.93143065 -19.16957944 140.96559955 -21 142 C-21 137.91583429 -20.84710374 133.69420747 -19 130 C-19.928125 130.495 -20.85625 130.99 -21.8125 131.5 C-25 133 -25 133 -28 133 C-30.28759035 134.19948558 -32.45214551 135.54771887 -34.6484375 136.90625 C-37.35431417 138.16479729 -39.0475111 138.29668446 -42 138 C-45.19943657 136.61985089 -47.53325548 135.46674452 -50 133 C-50.9590625 132.7834375 -50.9590625 132.7834375 -51.9375 132.5625 C-54.423756 131.88443018 -55.23804218 130.83537273 -57 129 C-59.09989652 127.82425289 -59.09989652 127.82425289 -61 127 C-61 126.34 -61 125.68 -61 125 C-57.84237242 126.11010345 -55.04338151 127.51352332 -52.1875 129.234375 C-51.16269531 129.84732422 -51.16269531 129.84732422 -50.1171875 130.47265625 C-48.69877168 131.32841635 -47.287291 132.19577187 -45.8828125 133.07421875 C-44.85800781 133.67943359 -44.85800781 133.67943359 -43.8125 134.296875 C-43.20019531 134.67166992 -42.58789062 135.04646484 -41.95703125 135.43261719 C-38.43973233 136.45235305 -35.79074792 134.41230116 -32.7019043 132.80175781 C-31.91726807 132.35670898 -31.13263184 131.91166016 -30.32421875 131.453125 C-29.42525879 130.94458984 -28.52629883 130.43605469 -27.60009766 129.91210938 C-26.63894043 129.36361328 -25.6777832 128.81511719 -24.6875 128.25 C-23.68509277 127.68087891 -22.68268555 127.11175781 -21.64990234 126.52539062 C-13.11580634 121.66692964 -4.62761721 116.73027952 3.84106445 111.75878906 C8.2372155 109.18015741 12.63865671 106.61097291 17.0703125 104.09375 C17.78203613 103.68833984 18.49375977 103.28292969 19.22705078 102.86523438 C21 102 21 102 23 102 C23.33 101.34 23.66 100.68 24 100 C24.33 100.33 24.66 100.66 25 101 C25.2475 100.195625 25.495 99.39125 25.75 98.5625 C26.1625 97.716875 26.575 96.87125 27 96 C27.639375 95.87625 28.27875 95.7525 28.9375 95.625 C29.618125 95.41875 30.29875 95.2125 31 95 C33.48450508 90.18418138 34.38057039 86.53565228 34.43237305 81.05493164 C34.4425647 80.40042023 34.45275635 79.74590881 34.46325684 79.07156372 C34.49315808 76.93433825 34.5026169 74.79756256 34.51171875 72.66015625 C34.52858254 71.16798948 34.54673506 69.67583676 34.56611633 68.18370056 C34.61343835 64.27607619 34.64336226 60.36850885 34.66955566 56.46069336 C34.69945157 52.46521753 34.74595065 48.46993781 34.79101562 44.47460938 C34.87684593 36.64983728 34.94428067 28.82505062 35 21 C32.69 20.34 30.38 19.68 28 19 C28 18.34 28 17.68 28 17 C26.329375 16.5359375 26.329375 16.5359375 24.625 16.0625 C21 15 21 15 19 14 C19 13.34 19 12.68 19 12 C18.0925 11.731875 17.185 11.46375 16.25 11.1875 C13.24164622 10.08829381 11.49641383 8.91391727 9 7 C8.319375 6.835 7.63875 6.67 6.9375 6.5 C4.54031362 5.88137126 3.64882628 4.79871958 2 3 C1.34 2.67 0.68 2.34 0 2 C0 1.34 0 0.68 0 0 Z " fill="#07FA99" transform="translate(118,24)"/>
<path d="M0 0 C0.99 0 1.98 0 3 0 C2.51342282 7.85234899 2.51342282 7.85234899 0.9375 11.375 C-1.53016173 13.44465177 -4.01629074 14.30827543 -7.0625 15.2890625 C-9.27794557 16.01620507 -9.27794557 16.01620507 -12 18 C-12.99 18 -13.98 18 -15 18 C-15 18.66 -15 19.32 -15 20 C-16.32 20 -17.64 20 -19 20 C-19 19.34 -19 18.68 -19 18 C-19.66 18 -20.32 18 -21 18 C-21 17.34 -21 16.68 -21 16 C-21.66 15.67 -22.32 15.34 -23 15 C-23.33 14.34 -23.66 13.68 -24 13 C-21.49940545 9.24910817 -20.09712961 7.8754565 -15.875 6.625 C-12.59951753 5.59314365 -9.61289056 4.39067281 -6.5625 2.8125 C-3 1 -3 1 -1 1 C-0.67 0.67 -0.34 0.34 0 0 Z " fill="#03FC98" transform="translate(96,154)"/>
<path d="M0 0 C9.3357918 4.42505738 18.17461862 9.52486542 27.02587891 14.83691406 C28.98119051 15.98891808 30.96151405 17.08480405 32.94921875 18.1796875 C36 20 36 20 37 22 C38.6879364 35.26839521 38.1521007 48.85745021 38.13037109 62.19775391 C38.12500306 66.12276047 38.1303462 70.04765312 38.13671875 73.97265625 C38.13605802 76.50520858 38.13477695 79.03776084 38.1328125 81.5703125 C38.13483673 82.72483917 38.13686096 83.87936584 38.13894653 85.06887817 C38.12955571 88.38113727 38.0770137 91.6886559 38 95 C37.98161072 96.19477966 37.96322144 97.38955933 37.9442749 98.62054443 C37.89804993 99.78587708 37.85182495 100.95120972 37.80419922 102.15185547 C37.77059296 103.20243134 37.73698669 104.2530072 37.70236206 105.3354187 C37 108 37 108 34.44973755 109.86550903 C33.64132416 110.23989105 32.83291077 110.61427307 32 111 C32.495 109.515 32.495 109.515 33 108 C33.66 108 34.32 108 35 108 C35 79.29 35 50.58 35 21 C32.69 20.34 30.38 19.68 28 19 C28 18.34 28 17.68 28 17 C26.88625 16.690625 25.7725 16.38125 24.625 16.0625 C21 15 21 15 19 14 C19 13.34 19 12.68 19 12 C18.0925 11.731875 17.185 11.46375 16.25 11.1875 C13.24164622 10.08829381 11.49641383 8.91391727 9 7 C8.319375 6.835 7.63875 6.67 6.9375 6.5 C4.54031362 5.88137126 3.64882628 4.79871958 2 3 C1.34 2.67 0.68 2.34 0 2 C0 1.34 0 0.68 0 0 Z " fill="#44E2A6" transform="translate(118,24)"/>
<path d="M0 0 C1.875 1.25 1.875 1.25 3 3 C2.6875 5.6875 2.6875 5.6875 2 8 C-0.475 7.505 -0.475 7.505 -3 7 C-3 7.66 -3 8.32 -3 9 C-4.65532623 10.01866229 -6.32260138 11.01810813 -8 12 C-8.33 12.66 -8.66 13.32 -9 14 C-12.41133516 16.39715444 -13.70612989 17 -18 17 C-18.66 16.01 -19.32 15.02 -20 14 C-20.99 14.33 -21.98 14.66 -23 15 C-23.66 14.34 -24.32 13.68 -25 13 C-21.25 11 -21.25 11 -19 11 C-19 9.68 -19 8.36 -19 7 C-18.43410156 6.89042969 -17.86820313 6.78085937 -17.28515625 6.66796875 C-16.18494141 6.43013672 -16.18494141 6.43013672 -15.0625 6.1875 C-14.33160156 6.03667969 -13.60070312 5.88585937 -12.84765625 5.73046875 C-12.23792969 5.48941406 -11.62820312 5.24835937 -11 5 C-10.67 4.01 -10.34 3.02 -10 2 C-9.01 2 -8.02 2 -7 2 C-7 1.34 -7 0.68 -7 0 C-4.26634878 -1.36682561 -2.89333621 -0.84683011 0 0 Z " fill="#02FD99" transform="translate(53,21)"/>
<path d="M0 0 C0.66 0.33 1.32 0.66 2 1 C1.99777939 2.0855014 1.99555878 3.17100281 1.99327087 4.28939819 C1.9730299 14.50177829 1.95802323 24.71415433 1.94818783 34.92654991 C1.94296144 40.17727873 1.93586819 45.42799141 1.92456055 50.67871094 C1.91372304 55.74261255 1.90772132 60.8064986 1.90512276 65.87041092 C1.90327007 67.80577464 1.89965244 69.74113748 1.89426994 71.6764946 C1.88704808 74.37988907 1.88600955 77.08321859 1.88647461 79.78662109 C1.88287933 80.59294479 1.87928406 81.39926849 1.87557983 82.23002625 C1.79051357 86.24518037 1.79051357 86.24518037 3 90 C1.0625 89.5 1.0625 89.5 -1 88 C-1.94344178 82.60226401 -2.12551595 77.33081566 -2.03759766 71.85571289 C-2.02959641 71.0856189 -2.02159515 70.3155249 -2.01335144 69.52209473 C-1.98572363 67.0055165 -1.95016514 64.48912605 -1.9140625 61.97265625 C-1.89227027 60.21529042 -1.87082175 58.45792029 -1.84970093 56.70054626 C-1.80438545 53.03329951 -1.75517322 49.36613182 -1.703125 45.69897461 C-1.63655721 40.9889202 -1.57941966 36.27880652 -1.52509499 31.56859684 C-1.48237529 27.94759603 -1.43492728 24.32666936 -1.38599777 20.7057476 C-1.3630505 18.9677455 -1.3415471 17.22972374 -1.32149124 15.49168587 C-1.29284563 13.07387085 -1.25789874 10.65622958 -1.22119141 8.23852539 C-1.2138649 7.51598068 -1.20653839 6.79343597 -1.19898987 6.04899597 C-1.11429366 1.11429366 -1.11429366 1.11429366 0 0 Z " fill="#34E09F" transform="translate(4,44)"/>
<path d="M0 0 C4.35522853 0.50642192 7.44239635 1.38411497 11 4 C11 4.66 11 5.32 11 6 C12.32 6.33 13.64 6.66 15 7 C15 30.76 15 54.52 15 79 C14.67 79 14.34 79 14 79 C14.01633987 78.14079956 14.03267975 77.28159912 14.04951477 76.3963623 C14.19234125 68.2752062 14.27219617 60.15634538 14.28240681 52.0338974 C14.28984864 47.85820559 14.3211066 43.6855972 14.40795898 39.51074219 C14.49098868 35.47659363 14.50993214 31.44663732 14.48558617 27.41175842 C14.48737001 25.87749283 14.51174791 24.34307257 14.55968666 22.80955505 C15.04243936 14.6173111 15.04243936 14.6173111 11.65285873 7.5539856 C8.06886271 4.74016431 4.12102023 2.89242681 0 1 C0 0.67 0 0.34 0 0 Z " fill="#34EFA8" transform="translate(128,44)"/>
<path d="M0 0 C3.71888239 0.50712033 6.73454239 1.11608215 10 3 C10 3.66 10 4.32 10 5 C10.5775 5.144375 11.155 5.28875 11.75 5.4375 C13.83333333 5.95833333 15.91666667 6.47916667 18 7 C18 7.66 18 8.32 18 9 C18.66 9 19.32 9 20 9 C20 9.66 20 10.32 20 11 C21.32 11 22.64 11 24 11 C24 10.34 24 9.68 24 9 C25.59766103 8.13372601 27.20339944 7.28233535 28.8125 6.4375 C29.70582031 5.96183594 30.59914063 5.48617187 31.51953125 4.99609375 C34 4 34 4 37 5 C34.75583701 6.34409762 32.50557204 7.67529896 30.25 9 C29.61578125 9.3815625 28.9815625 9.763125 28.328125 10.15625 C24.86028524 12.17915652 23.10651746 13 19 13 C19 12.34 19 11.68 19 11 C18.32582031 10.75507813 17.65164062 10.51015625 16.95703125 10.2578125 C13.35909286 8.72738164 10.06123937 6.84156692 6.6875 4.875 C6.04232422 4.50246094 5.39714844 4.12992188 4.73242188 3.74609375 C3.15324055 2.83367787 1.57638136 1.91724491 0 1 C0 0.67 0 0.34 0 0 Z " fill="#28EAA0" transform="translate(57,163)"/>
<path d="M0 0 C-1.08539063 0.60328125 -2.17078125 1.2065625 -3.2890625 1.828125 C-4.73444699 2.63528777 -6.17975546 3.44258668 -7.625 4.25 C-8.33785156 4.64574219 -9.05070312 5.04148437 -9.78515625 5.44921875 C-11.8678377 6.61475607 -13.93771553 7.79876725 -16 9 C-16.61456055 9.35771484 -17.22912109 9.71542969 -17.86230469 10.08398438 C-19.70671036 11.1847176 -19.70671036 11.1847176 -22 13 C-22 13.99 -22 14.98 -22 16 C-22.99 16 -23.98 16 -25 16 C-25.33 15.01 -25.66 14.02 -26 13 C-25.34 13 -24.68 13 -24 13 C-23.34 11.68 -22.68 10.36 -22 9 C-21.01 9 -20.02 9 -19 9 C-18.34 7.35 -17.68 5.7 -17 4 C-15.68 4 -14.36 4 -13 4 C-13 3.34 -13 2.68 -13 2 C-11.68 2 -10.36 2 -9 2 C-9 1.34 -9 0.68 -9 0 C-3.375 -1.125 -3.375 -1.125 0 0 Z " fill="#1EEA9E" transform="translate(63,26)"/>
<path d="M0 0 C3.15762758 1.11010345 5.95661849 2.51352332 8.8125 4.234375 C9.49570313 4.64300781 10.17890625 5.05164063 10.8828125 5.47265625 C12.30122832 6.32841635 13.712709 7.19577187 15.1171875 8.07421875 C19.1302013 10.58282211 19.1302013 10.58282211 23.66796875 10.4296875 C24.43753906 9.95789063 25.20710938 9.48609375 26 9 C26.88300781 8.57460937 27.76601562 8.14921875 28.67578125 7.7109375 C29.98095703 7.04964844 29.98095703 7.04964844 31.3125 6.375 C32.19550781 5.92898437 33.07851562 5.48296875 33.98828125 5.0234375 C34.65214844 4.68570313 35.31601563 4.34796875 36 4 C34.70431519 7.88705443 33.29516728 8.26799098 29.75 10.1875 C28.79609375 10.71730469 27.8421875 11.24710938 26.859375 11.79296875 C23.90450096 13.04031312 22.16080602 13.35354592 19 13 C15.80056343 11.61985089 13.46674452 10.46674452 11 8 C10.360625 7.855625 9.72125 7.71125 9.0625 7.5625 C6.576244 6.88443018 5.76195782 5.83537273 4 4 C1.90010348 2.82425289 1.90010348 2.82425289 0 2 C0 1.34 0 0.68 0 0 Z " fill="#30E6A1" transform="translate(57,149)"/>
<path d="M0 0 C4.05281712 1.22527029 7.44360764 2.69880494 11 5 C11 4.34 11 3.68 11 3 C11.99 3 12.98 3 14 3 C14 4.32 14 5.64 14 7 C14.73605469 7.39832031 15.47210938 7.79664063 16.23046875 8.20703125 C17.20628906 8.73683594 18.18210937 9.26664063 19.1875 9.8125 C20.15042969 10.33457031 21.11335938 10.85664063 22.10546875 11.39453125 C24.77398357 12.87463866 27.39374227 14.41337509 30 16 C27 17 27 17 24 16 C24 15.34 24 14.68 24 14 C23.21625 13.855625 22.4325 13.71125 21.625 13.5625 C19 13 19 13 17 12 C17 11.34 17 10.68 17 10 C14.69 9.34 12.38 8.68 10 8 C10 7.34 10 6.68 10 6 C7.36 5.67 4.72 5.34 2 5 C2 4.01 2 3.02 2 2 C1.34 2 0.68 2 0 2 C0 1.34 0 0.68 0 0 Z " fill="#35D99E" transform="translate(27,132)"/>
<path d="M0 0 C9.46774448 4.48760143 18.42746196 9.67410464 27.40283203 15.0637207 C28.57759166 15.75237909 29.78203102 16.39101551 31 17 C31 17.66 31 18.32 31 19 C30.01 19 29.02 19 28 19 C28 18.34 28 17.68 28 17 C26.88625 16.690625 25.7725 16.38125 24.625 16.0625 C21 15 21 15 19 14 C19 13.34 19 12.68 19 12 C18.0925 11.731875 17.185 11.46375 16.25 11.1875 C13.24164622 10.08829381 11.49641383 8.91391727 9 7 C8.319375 6.835 7.63875 6.67 6.9375 6.5 C4.54031362 5.88137126 3.64882628 4.79871958 2 3 C1.34 2.67 0.68 2.34 0 2 C0 1.34 0 0.68 0 0 Z " fill="#2EE29E" transform="translate(118,24)"/>
<path d="M0 0 C4.69239886 1.2200237 8.69663886 2.70487406 13 5 C13.78375 5.391875 14.5675 5.78375 15.375 6.1875 C16.179375 6.5896875 16.179375 6.5896875 17 7 C17.33 6.34 17.66 5.68 18 5 C18.66 5.33 19.32 5.66 20 6 C19.67 6.99 19.34 7.98 19 9 C19.99 9.33 20.98 9.66 22 10 C22 10.66 22 11.32 22 12 C22.66 12 23.32 12 24 12 C24 12.66 24 13.32 24 14 C18.73202405 11.99839031 14.04578982 9.26697379 9.1875 6.4375 C8.30384766 5.93025391 7.42019531 5.42300781 6.50976562 4.90039062 C5.67509766 4.41634766 4.84042969 3.93230469 3.98046875 3.43359375 C2.83421021 2.76928345 2.83421021 2.76928345 1.66479492 2.09155273 C1.1154126 1.73134033 0.56603027 1.37112793 0 1 C0 0.67 0 0.34 0 0 Z " fill="#2BEBA3" transform="translate(33,149)"/>
<path d="M0 0 C2.31 0.33 4.62 0.66 7 1 C7 1.66 7 2.32 7 3 C8.32 3 9.64 3 11 3 C12.625 4.4375 12.625 4.4375 14 6 C14.66 6.33 15.32 6.66 16 7 C16 7.66 16 8.32 16 9 C18.31 9.66 20.62 10.32 23 11 C23 11.66 23 12.32 23 13 C21.02 12.34 19.04 11.68 17 11 C16.67 11.66 16.34 12.32 16 13 C15.01 13 14.02 13 13 13 C13.33 11.68 13.66 10.36 14 9 C7.07 5.04 7.07 5.04 0 1 C0 0.67 0 0.34 0 0 Z " fill="#2CE99E" transform="translate(102,29)"/>
<path d="M0 0 C0 0.99 0 1.98 0 3 C-1.98 3.33 -3.96 3.66 -6 4 C-6 4.66 -6 5.32 -6 6 C-6.99 6.33 -7.98 6.66 -9 7 C-9.6496875 7.7425 -9.6496875 7.7425 -10.3125 8.5 C-12.68067968 10.60504861 -14.91481553 10.65720173 -18 11 C-18 11.66 -18 12.32 -18 13 C-19.32 12.67 -20.64 12.34 -22 12 C-19.03 10.35 -16.06 8.7 -13 7 C-13.33 5.68 -13.66 4.36 -14 3 C-13.01 3 -12.02 3 -11 3 C-10.67 3.66 -10.34 4.32 -10 5 C-9.44570313 4.6390625 -8.89140625 4.278125 -8.3203125 3.90625 C-7.59585938 3.4421875 -6.87140625 2.978125 -6.125 2.5 C-5.40570313 2.0359375 -4.68640625 1.571875 -3.9453125 1.09375 C-2 0 -2 0 0 0 Z " fill="#31DE9C" transform="translate(52,17)"/>
<path d="M0 0 C0.33 1.32 0.66 2.64 1 4 C0.01 4.33 -0.98 4.66 -2 5 C-2.66 5.66 -3.32 6.32 -4 7 C-6.25 7.5625 -6.25 7.5625 -9 8 C-10.093125 8.185625 -11.18625 8.37125 -12.3125 8.5625 C-13.199375 8.706875 -14.08625 8.85125 -15 9 C-11.6214602 5.03388806 -5.46055995 0 0 0 Z " fill="#18EB9B" transform="translate(130,132)"/>
<path d="M0 0 C5.17935061 1.46828943 9.34373412 3.81491263 13.875 6.625 C14.56335938 7.04523437 15.25171875 7.46546875 15.9609375 7.8984375 C17.64391658 8.92692472 19.32242532 9.962721 21 11 C20.01 11.495 20.01 11.495 19 12 C16.64018187 11.06421005 14.30368736 10.06652192 12 9 C12 8.34 12 7.68 12 7 C9.69 6.34 7.38 5.68 5 5 C5 4.34 5 3.68 5 3 C1.7 3.66 -1.6 4.32 -5 5 C-3.35 3.35 -1.7 1.7 0 0 Z " fill="#30E49D" transform="translate(77,1)"/>
<path d="M0 0 C1.32 0 2.64 0 4 0 C4 0.66 4 1.32 4 2 C4.7425 1.95875 5.485 1.9175 6.25 1.875 C9.08758952 2.00398134 10.58773938 2.57051222 13 4 C13 4.66 13 5.32 13 6 C13.99 5.67 14.98 5.34 16 5 C16 6.32 16 7.64 16 9 C10.0942118 7.44584521 5.02261107 4.40465533 0 1 C0 0.67 0 0.34 0 0 Z " fill="#2BE99F" transform="translate(17,140)"/>
<path d="M0 0 C-2.24416299 1.34409762 -4.49442796 2.67529896 -6.75 4 C-7.70132813 4.57234375 -7.70132813 4.57234375 -8.671875 5.15625 C-12.13971476 7.17915652 -13.89348254 8 -18 8 C-18 7.34 -18 6.68 -18 6 C-18.66 5.67 -19.32 5.34 -20 5 C-17.69 5.33 -15.38 5.66 -13 6 C-13 5.34 -13 4.68 -13 4 C-11.40233897 3.13372601 -9.79660056 2.28233535 -8.1875 1.4375 C-7.29417969 0.96183594 -6.40085937 0.48617187 -5.48046875 -0.00390625 C-3 -1 -3 -1 0 0 Z " fill="#40DD9F" transform="translate(94,168)"/>
<path d="M0 0 C3.69876091 1.37287342 6.9514476 3.06355453 10.3125 5.125 C11.19550781 5.66382813 12.07851562 6.20265625 12.98828125 6.7578125 C13.65214844 7.16773438 14.31601563 7.57765625 15 8 C14.67 8.66 14.34 9.32 14 10 C13.34 10 12.68 10 12 10 C11.67 9.34 11.34 8.68 11 8 C10.071875 7.7834375 10.071875 7.7834375 9.125 7.5625 C6.5834871 6.88974659 5.79495659 5.86974645 4 4 C1.90010348 2.82425289 1.90010348 2.82425289 0 2 C0 1.34 0 0.68 0 0 Z " fill="#23E79F" transform="translate(57,149)"/>
<path d="M0 0 C4.35522853 0.50642192 7.44239635 1.38411497 11 4 C11 4.66 11 5.32 11 6 C11.99 6 12.98 6 14 6 C13.67 6.99 13.34 7.98 13 9 C10.83061859 7.69181533 8.6644848 6.37874076 6.5 5.0625 C5.87996094 4.68931641 5.25992188 4.31613281 4.62109375 3.93164062 C3.06370003 2.9818016 1.5296725 1.99386689 0 1 C0 0.67 0 0.34 0 0 Z " fill="#2DE4A0" transform="translate(128,44)"/>
<path d="M0 0 C1.32 0.33 2.64 0.66 4 1 C-0.62 3.64 -5.24 6.28 -10 9 C-10.33 8.01 -10.66 7.02 -11 6 C-10.21625 5.71125 -9.4325 5.4225 -8.625 5.125 C-5.90328368 4.15087746 -5.90328368 4.15087746 -4 2 C-2.68 2 -1.36 2 0 2 C0 1.34 0 0.68 0 0 Z " fill="#2AE69D" transform="translate(29,42)"/>
<path d="M0 0 C0.7425 0.350625 1.485 0.70125 2.25 1.0625 C5.1322726 2.04509293 6.21176345 2.0326802 9 1 C8.67 2.32 8.34 3.64 8 5 C6.68 4.67 5.36 4.34 4 4 C4 4.66 4 5.32 4 6 C3.01 6.33 2.02 6.66 1 7 C0.67 4.69 0.34 2.38 0 0 Z " fill="#28DA97" transform="translate(109,19)"/>
<path d="M0 0 C0.66 0.33 1.32 0.66 2 1 C1.67 1.99 1.34 2.98 1 4 C1.99 4.33 2.98 4.66 4 5 C4 5.66 4 6.32 4 7 C4.66 7 5.32 7 6 7 C6 7.66 6 8.32 6 9 C3.0280615 7.87548273 0.66559313 6.77706209 -2 5 C-1.34 3.35 -0.68 1.7 0 0 Z " fill="#1DEE9C" transform="translate(51,154)"/>
<path d="M0 0 C0.33 1.32 0.66 2.64 1 4 C-0.24176695 4.70226141 -1.49385599 5.38629109 -2.75 6.0625 C-3.79414063 6.63677734 -3.79414063 6.63677734 -4.859375 7.22265625 C-7.36140628 8.1312406 -8.5332355 7.88336837 -11 7 C-9.54462432 6.16151196 -8.08559627 5.32936066 -6.625 4.5 C-5.81289062 4.0359375 -5.00078125 3.571875 -4.1640625 3.09375 C-2 2 -2 2 0 2 C0 1.34 0 0.68 0 0 Z " fill="#26DE9A" transform="translate(141,124)"/>
<path d="M0 0 C-0.1875 1.8125 -0.1875 1.8125 -1 4 C-3.5625 5.75 -3.5625 5.75 -6 7 C-6 5.35 -6 3.7 -6 2 C-2.25 0 -2.25 0 0 0 Z " fill="#16ED9D" transform="translate(99,150)"/>
<path d="M0 0 C0.99 0.33 1.98 0.66 3 1 C1.71186658 1.83878455 0.41936744 2.67086783 -0.875 3.5 C-1.59429687 3.9640625 -2.31359375 4.428125 -3.0546875 4.90625 C-5 6 -5 6 -7 6 C-6.67 4.35 -6.34 2.7 -6 1 C-4.7934375 1.0309375 -4.7934375 1.0309375 -3.5625 1.0625 C-1.06645115 1.29633621 -1.06645115 1.29633621 0 0 Z " fill="#22ECA4" transform="translate(137,140)"/>
<path d="M0 0 C0.66 0.33 1.32 0.66 2 1 C2 1.66 2 2.32 2 3 C0.02 2.34 -1.96 1.68 -4 1 C-4.33 1.66 -4.66 2.32 -5 3 C-5.99 3 -6.98 3 -8 3 C-8 2.01 -8 1.02 -8 0 C-5.11541362 -1.44229319 -3.09360585 -0.64450122 0 0 Z " fill="#49D3A1" transform="translate(123,39)"/>
<path d="M0 0 C4.43090471 1.20842856 6.98112756 2.51668565 10 6 C9.01 6.495 9.01 6.495 8 7 C8 6.34 8 5.68 8 5 C5.69 4.67 3.38 4.34 1 4 C0.67 2.68 0.34 1.36 0 0 Z " fill="#26DD99" transform="translate(17,126)"/>
<path d="M0 0 C1.98 0.495 1.98 0.495 4 1 C3.67 2.32 3.34 3.64 3 5 C1.68 4.67 0.36 4.34 -1 4 C-0.67 2.68 -0.34 1.36 0 0 Z " fill="#E4E3E5" transform="translate(96,115)"/>
<path d="M0 0 C0.99 0 1.98 0 3 0 C3 0.66 3 1.32 3 2 C2.01 2.66 1.02 3.32 0 4 C0 4.99 0 5.98 0 7 C-0.99 7 -1.98 7 -3 7 C-3.33 6.01 -3.66 5.02 -4 4 C-3.34 4 -2.68 4 -2 4 C-1.34 2.68 -0.68 1.36 0 0 Z " fill="#37CF98" transform="translate(41,35)"/>
<path d="M0 0 C1.6396875 0.0928125 1.6396875 0.0928125 3.3125 0.1875 C2.9825 1.1775 2.6525 2.1675 2.3125 3.1875 C-0.6575 3.1875 -3.6275 3.1875 -6.6875 3.1875 C-3.6875 0.1875 -3.6875 0.1875 0 0 Z " fill="#16EE99" transform="translate(31.6875,29.8125)"/>
<path d="M0 0 C1.98 0.66 3.96 1.32 6 2 C6 2.33 6 2.66 6 3 C2.37 3.66 -1.26 4.32 -5 5 C-3.35 3.35 -1.7 1.7 0 0 Z " fill="#33D999" transform="translate(77,1)"/>
<path d="M0 0 C0 0.99 0 1.98 0 3 C-2.25 4.75 -2.25 4.75 -5 6 C-6.32 5.67 -7.64 5.34 -9 5 C-6.03 3.35 -3.06 1.7 0 0 Z " fill="#38DD9B" transform="translate(92,153)"/>
<path d="M0 0 C1.65 0 3.3 0 5 0 C3.875 1.9375 3.875 1.9375 2 4 C-1.1875 4.75 -1.1875 4.75 -4 5 C-3.67 4.01 -3.34 3.02 -3 2 C-2.01 2 -1.02 2 0 2 C0 1.34 0 0.68 0 0 Z " fill="#2CE19D" transform="translate(115,152)"/>
<path d="M0 0 C1.65 0 3.3 0 5 0 C1.80009492 2.74277578 -1.00499382 4.6302836 -5 6 C-4.67 5.01 -4.34 4.02 -4 3 C-3.01 2.67 -2.02 2.34 -1 2 C-0.67 1.34 -0.34 0.68 0 0 Z " fill="#2DE3A0" transform="translate(125,146)"/>
<path d="M0 0 C-0.625 1.9375 -0.625 1.9375 -2 4 C-5.125 4.75 -5.125 4.75 -8 5 C-3.16129032 0 -3.16129032 0 0 0 Z " fill="#31DC9C" transform="translate(123,136)"/>
<path d="M0 0 C1.65 0 3.3 0 5 0 C5.28875 0.639375 5.5775 1.27875 5.875 1.9375 C6.82823451 4.15206079 6.82823451 4.15206079 9 5 C5.12867972 4.42647107 2.91827204 2.51295648 0 0 Z " fill="#24ECA5" transform="translate(7,134)"/>
<path d="M0 0 C7.57142857 1.85714286 7.57142857 1.85714286 10 5 C5.75354935 5 3.61475228 3.18249194 0 1 C0 0.67 0 0.34 0 0 Z " fill="#29E89E" transform="translate(85,19)"/>
<path d="M0 0 C1.98 0 3.96 0 6 0 C3.31158141 2.25245881 1.35358125 3.88213958 -2 5 C-1.34 3.35 -0.68 1.7 0 0 Z " fill="#26E79C" transform="translate(98,161)"/>
<path d="M0 0 C1.98 0.66 3.96 1.32 6 2 C6 2.99 6 3.98 6 5 C4.68 5 3.36 5 2 5 C2 4.01 2 3.02 2 2 C1.34 2 0.68 2 0 2 C0 1.34 0 0.68 0 0 Z " fill="#1EEA9E" transform="translate(27,132)"/>
<path d="M0 0 C1.32 0.66 2.64 1.32 4 2 C3.67 2.66 3.34 3.32 3 4 C1.68 4 0.36 4 -1 4 C-0.67 2.68 -0.34 1.36 0 0 Z " fill="#C6C6C9" transform="translate(58,115)"/>
<path d="M0 0 C0.99 0 1.98 0 3 0 C3.33 1.32 3.66 2.64 4 4 C2.68 4 1.36 4 0 4 C0 2.68 0 1.36 0 0 Z " fill="#69B7A8" transform="translate(76,154)"/>
<path d="M0 0 C1.32 0.33 2.64 0.66 4 1 C3.67 1.99 3.34 2.98 3 4 C2.01 4 1.02 4 0 4 C0 2.68 0 1.36 0 0 Z " fill="#D4D4D6" transform="translate(115,96)"/>
<path d="M0 0 C1.32 0 2.64 0 4 0 C3.67 1.32 3.34 2.64 3 4 C2.01 3.34 1.02 2.68 0 2 C0 1.34 0 0.68 0 0 Z " fill="#C7D3CF" transform="translate(95,174)"/>
<path d="M0 0 C0.99 0 1.98 0 3 0 C3 1.32 3 2.64 3 4 C2.01 4 1.02 4 0 4 C0 2.68 0 1.36 0 0 Z " fill="#C3CCCB" transform="translate(115,115)"/>
<path d="M0 0 C0.99 0.33 1.98 0.66 3 1 C2.67 1.99 2.34 2.98 2 4 C1.01 3.67 0.02 3.34 -1 3 C-0.67 2.01 -0.34 1.02 0 0 Z " fill="#B6B6B9" transform="translate(154,0)"/>
<path d="M0 0 C0.99 0.33 1.98 0.66 3 1 C3 1.99 3 2.98 3 4 C2.01 4 1.02 4 0 4 C0 2.68 0 1.36 0 0 Z " fill="#C6C7C6" transform="translate(96,96)"/>
<path d="M0 0 C1.32 0.33 2.64 0.66 4 1 C4 1.66 4 2.32 4 3 C2.68 3 1.36 3 0 3 C0 2.01 0 1.02 0 0 Z " fill="#B7C9C3" transform="translate(153,39)"/>
<path d="M0 0 C1.32 0 2.64 0 4 0 C3.67 0.99 3.34 1.98 3 3 C2.01 3 1.02 3 0 3 C0 2.01 0 1.02 0 0 Z " fill="#B5B7BB" transform="translate(153,20)"/>
<path d="M0 0 C0.99 0.33 1.98 0.66 3 1 C3 1.99 3 2.98 3 4 C2.01 4 1.02 4 0 4 C0 2.68 0 1.36 0 0 Z " fill="#B8B9B9" transform="translate(19,0)"/>
<path d="M0 0 C0.66 0.33 1.32 0.66 2 1 C2 1.99 2 2.98 2 4 C1.01 4 0.02 4 -1 4 C-0.67 2.68 -0.34 1.36 0 0 Z " fill="#BCC0C0" transform="translate(116,173)"/>
<path d="M0 0 C0.66 0.33 1.32 0.66 2 1 C2 1.99 2 2.98 2 4 C1.01 4 0.02 4 -1 4 C-0.67 2.68 -0.34 1.36 0 0 Z " fill="#B8B8B8" transform="translate(77,115)"/>
<path d="M0 0 C0.66 0.33 1.32 0.66 2 1 C2 1.99 2 2.98 2 4 C1.01 4 0.02 4 -1 4 C-0.67 2.68 -0.34 1.36 0 0 Z " fill="#9A9B9A" transform="translate(135,0)"/>
<path d="M0 0 C0.99 0.33 1.98 0.66 3 1 C2.67 1.99 2.34 2.98 2 4 C1.34 4 0.68 4 0 4 C0 2.68 0 1.36 0 0 Z " fill="#859B97" transform="translate(96,0)"/>
<path d="M0 0 C0.99 0.33 1.98 0.66 3 1 C2.67 1.99 2.34 2.98 2 4 C1.34 4 0.68 4 0 4 C0 2.68 0 1.36 0 0 Z " fill="#9FA1A0" transform="translate(38,0)"/>
<path d="M0 0 C0.99 0 1.98 0 3 0 C3 0.99 3 1.98 3 3 C2.01 3 1.02 3 0 3 C0 2.01 0 1.02 0 0 Z " fill="#B0B2B2" transform="translate(134,174)"/>
<path d="M0 0 C0.99 0 1.98 0 3 0 C3 0.99 3 1.98 3 3 C2.01 3 1.02 3 0 3 C0 2.01 0 1.02 0 0 Z " fill="#BDBCC4" transform="translate(153,174)"/>
<path d="M0 0 C0.99 0 1.98 0 3 0 C3 0.99 3 1.98 3 3 C2.01 3 1.02 3 0 3 C0 2.01 0 1.02 0 0 Z " fill="#B8C2C1" transform="translate(57,174)"/>
<path d="M0 0 C0.99 0 1.98 0 3 0 C3 0.99 3 1.98 3 3 C2.01 3 1.02 3 0 3 C0 2.01 0 1.02 0 0 Z " fill="#A1A5A5" transform="translate(38,174)"/>
<path d="M0 0 C0.99 0 1.98 0 3 0 C3 0.99 3 1.98 3 3 C2.01 3 1.02 3 0 3 C0 2.01 0 1.02 0 0 Z " fill="#75A596" transform="translate(115,135)"/>
<path d="M0 0 C0.99 0 1.98 0 3 0 C3 0.99 3 1.98 3 3 C2.01 3 1.02 3 0 3 C0 2.01 0 1.02 0 0 Z " fill="#9CA5A5" transform="translate(57,135)"/>
<path d="M0 0 C0.99 0 1.98 0 3 0 C3 0.99 3 1.98 3 3 C2.01 3 1.02 3 0 3 C0 2.01 0 1.02 0 0 Z " fill="#9EAAA6" transform="translate(134,116)"/>
<path d="M0 0 C0.99 0 1.98 0 3 0 C3 0.99 3 1.98 3 3 C2.01 3 1.02 3 0 3 C0 2.01 0 1.02 0 0 Z " fill="#A9AFAE" transform="translate(38,116)"/>
<path d="M0 0 C0.99 0 1.98 0 3 0 C3 0.99 3 1.98 3 3 C2.01 3 1.02 3 0 3 C0 2.01 0 1.02 0 0 Z " fill="#80A49A" transform="translate(19,116)"/>
<path d="M0 0 C0.99 0 1.98 0 3 0 C3 0.99 3 1.98 3 3 C2.01 3 1.02 3 0 3 C0 2.01 0 1.02 0 0 Z " fill="#89A29C" transform="translate(19,97)"/>
<path d="M0 0 C0.99 0 1.98 0 3 0 C3 0.99 3 1.98 3 3 C2.01 3 1.02 3 0 3 C0 2.01 0 1.02 0 0 Z " fill="#9DABA4" transform="translate(134,97)"/>
<path d="M0 0 C0.99 0 1.98 0 3 0 C3 0.99 3 1.98 3 3 C2.01 3 1.02 3 0 3 C0 2.01 0 1.02 0 0 Z " fill="#B5B5B5" transform="translate(76,97)"/>
<path d="M0 0 C0.99 0 1.98 0 3 0 C3 0.99 3 1.98 3 3 C2.01 3 1.02 3 0 3 C0 2.01 0 1.02 0 0 Z " fill="#B7B7B8" transform="translate(57,97)"/>
<path d="M0 0 C0.99 0 1.98 0 3 0 C3 0.99 3 1.98 3 3 C2.01 3 1.02 3 0 3 C0 2.01 0 1.02 0 0 Z " fill="#A4A4A4" transform="translate(38,97)"/>
<path d="M0 0 C0.99 0 1.98 0 3 0 C3 0.99 3 1.98 3 3 C2.01 3 1.02 3 0 3 C0 2.01 0 1.02 0 0 Z " fill="#B8B8B9" transform="translate(96,78)"/>
<path d="M0 0 C0.99 0.33 1.98 0.66 3 1 C2.67 1.99 2.34 2.98 2 4 C1.34 4 0.68 4 0 4 C0 2.68 0 1.36 0 0 Z " fill="#92A6A2" transform="translate(19,77)"/>
<path d="M0 0 C0.99 0 1.98 0 3 0 C3 0.99 3 1.98 3 3 C2.01 3 1.02 3 0 3 C0 2.01 0 1.02 0 0 Z " fill="#8DB2A9" transform="translate(134,58)"/>
<path d="M0 0 C0.99 0 1.98 0 3 0 C3 0.99 3 1.98 3 3 C2.01 3 1.02 3 0 3 C0 2.01 0 1.02 0 0 Z " fill="#ABB1B3" transform="translate(115,58)"/>
<path d="M0 0 C0.99 0 1.98 0 3 0 C3 0.99 3 1.98 3 3 C2.01 3 1.02 3 0 3 C0 2.01 0 1.02 0 0 Z " fill="#C0C0C0" transform="translate(96,58)"/>
<path d="M0 0 C0.99 0 1.98 0 3 0 C3 0.99 3 1.98 3 3 C2.01 3 1.02 3 0 3 C0 2.01 0 1.02 0 0 Z " fill="#AEAEAE" transform="translate(38,58)"/>
<path d="M0 0 C0.99 0 1.98 0 3 0 C3 0.99 3 1.98 3 3 C2.01 3 1.02 3 0 3 C0 2.01 0 1.02 0 0 Z " fill="#BABABC" transform="translate(57,58)"/>
<path d="M0 0 C0.99 0 1.98 0 3 0 C3 0.99 3 1.98 3 3 C2.01 3 1.02 3 0 3 C0 2.01 0 1.02 0 0 Z " fill="#B8BBBD" transform="translate(57,39)"/>
<path d="M0 0 C0.99 0 1.98 0 3 0 C3 0.99 3 1.98 3 3 C2.01 3 1.02 3 0 3 C0 2.01 0 1.02 0 0 Z " fill="#B4C0BE" transform="translate(96,39)"/>
<path d="M0 0 C0.99 0 1.98 0 3 0 C3 0.99 3 1.98 3 3 C2.01 3 1.02 3 0 3 C0 2.01 0 1.02 0 0 Z " fill="#B6B6B6" transform="translate(76,39)"/>
<path d="M0 0 C0.99 0 1.98 0 3 0 C3 0.99 3 1.98 3 3 C2.01 3 1.02 3 0 3 C0 2.01 0 1.02 0 0 Z " fill="#869F96" transform="translate(134,20)"/>
<path d="M0 0 C0.66 0 1.32 0 2 0 C2.33 0.99 2.66 1.98 3 3 C2.01 3.33 1.02 3.66 0 4 C0 2.68 0 1.36 0 0 Z " fill="#B5B5B5" transform="translate(0,0)"/>
<path d="M0 0 C0.66 0.33 1.32 0.66 2 1 C1.67 1.99 1.34 2.98 1 4 C0.34 4 -0.32 4 -1 4 C-0.67 2.68 -0.34 1.36 0 0 Z " fill="#B6B7B6" transform="translate(116,0)"/>
<path d="M0 0 C0.66 0 1.32 0 2 0 C1.67 1.32 1.34 2.64 1 4 C0.34 3.67 -0.32 3.34 -1 3 C-0.67 2.01 -0.34 1.02 0 0 Z " fill="#9FB3B0" transform="translate(58,0)"/>
<path d="M0 0 C0.99 0 1.98 0 3 0 C2.67 0.99 2.34 1.98 2 3 C1.34 3 0.68 3 0 3 C0 2.01 0 1.02 0 0 Z " fill="#969B9A" transform="translate(19,174)"/>
<path d="M0 0 C0.66 0 1.32 0 2 0 C2 0.99 2 1.98 2 3 C1.01 3 0.02 3 -1 3 C-0.67 2.01 -0.34 1.02 0 0 Z " fill="#82B8A1" transform="translate(154,135)"/>
<path d="M0 0 C0.99 0.33 1.98 0.66 3 1 C3 1.66 3 2.32 3 3 C2.01 3 1.02 3 0 3 C0 2.01 0 1.02 0 0 Z " fill="#ABB0AF" transform="translate(96,135)"/>
<path d="M0 0 C0.66 0 1.32 0 2 0 C2 0.99 2 1.98 2 3 C1.01 3 0.02 3 -1 3 C-0.67 2.01 -0.34 1.02 0 0 Z " fill="#9DA19F" transform="translate(77,135)"/>
<path d="M0 0 C0.66 0.33 1.32 0.66 2 1 C1.67 1.99 1.34 2.98 1 4 C0.34 3.67 -0.32 3.34 -1 3 C-0.67 2.01 -0.34 1.02 0 0 Z " fill="#CBCED2" transform="translate(116,77)"/>
<path d="M0 0 C0.99 0.33 1.98 0.66 3 1 C3 1.66 3 2.32 3 3 C2.01 3 1.02 3 0 3 C0 2.01 0 1.02 0 0 Z " fill="#81A59E" transform="translate(19,58)"/>
<path d="M0 0 C0.66 0 1.32 0 2 0 C2 0.99 2 1.98 2 3 C1.01 3 0.02 3 -1 3 C-0.67 2.01 -0.34 1.02 0 0 Z " fill="#B0B0B0" transform="translate(77,58)"/>
<path d="M0 0 C0.99 0 1.98 0 3 0 C2.67 0.99 2.34 1.98 2 3 C1.34 3 0.68 3 0 3 C0 2.01 0 1.02 0 0 Z " fill="#869493" transform="translate(19,20)"/>
<path d="M0 0 C0.66 0.33 1.32 0.66 2 1 C2 1.66 2 2.32 2 3 C1.01 3 0.02 3 -1 3 C-0.67 2.01 -0.34 1.02 0 0 Z " fill="#BDC3C1" transform="translate(135,154)"/>
<path d="M0 0 C0.66 0 1.32 0 2 0 C2 0.99 2 1.98 2 3 C1.34 3 0.68 3 0 3 C0 2.01 0 1.02 0 0 Z " fill="#B3B3B4" transform="translate(0,174)"/>
<path d="M0 0 C0.99 0 1.98 0 3 0 C3 0.66 3 1.32 3 2 C2.01 2 1.02 2 0 2 C0 1.34 0 0.68 0 0 Z " fill="#55AA8A" transform="translate(38,155)"/>
<path d="M0 0 C0.99 0 1.98 0 3 0 C3 0.66 3 1.32 3 2 C2.01 2 1.02 2 0 2 C0 1.34 0 0.68 0 0 Z " fill="#A5ABA9" transform="translate(153,155)"/>
<path d="M0 0 C0.99 0 1.98 0 3 0 C3 0.66 3 1.32 3 2 C2.01 2 1.02 2 0 2 C0 1.34 0 0.68 0 0 Z " fill="#859B92" transform="translate(19,155)"/>
<path d="M0 0 C0.66 0 1.32 0 2 0 C2 0.99 2 1.98 2 3 C1.34 3 0.68 3 0 3 C0 2.01 0 1.02 0 0 Z " fill="#7BBEA8" transform="translate(0,135)"/>
<path d="M0 0 C0.66 0 1.32 0 2 0 C2 0.99 2 1.98 2 3 C1.34 3 0.68 3 0 3 C0 2.01 0 1.02 0 0 Z " fill="#66BA9F" transform="translate(0,116)"/>
<path d="M0 0 C0.66 0 1.32 0 2 0 C2 0.99 2 1.98 2 3 C1.34 3 0.68 3 0 3 C0 2.01 0 1.02 0 0 Z " fill="#66B99F" transform="translate(0,97)"/>
<path d="M0 0 C0.99 0 1.98 0 3 0 C3 0.66 3 1.32 3 2 C2.01 2 1.02 2 0 2 C0 1.34 0 0.68 0 0 Z " fill="#91A29C" transform="translate(134,78)"/>
<path d="M0 0 C0.99 0 1.98 0 3 0 C3 0.66 3 1.32 3 2 C2.01 2 1.02 2 0 2 C0 1.34 0 0.68 0 0 Z " fill="#AFAFB6" transform="translate(76,78)"/>
<path d="M0 0 C0.99 0 1.98 0 3 0 C3 0.66 3 1.32 3 2 C2.01 2 1.02 2 0 2 C0 1.34 0 0.68 0 0 Z " fill="#AAAAAA" transform="translate(57,78)"/>
<path d="M0 0 C0.99 0 1.98 0 3 0 C3 0.66 3 1.32 3 2 C2.01 2 1.02 2 0 2 C0 1.34 0 0.68 0 0 Z " fill="#9B9B9B" transform="translate(38,78)"/>
<path d="M0 0 C0.66 0 1.32 0 2 0 C2 0.99 2 1.98 2 3 C1.34 3 0.68 3 0 3 C0 2.01 0 1.02 0 0 Z " fill="#5CB898" transform="translate(0,58)"/>
<path d="M0 0 C0.66 0 1.32 0 2 0 C2 0.99 2 1.98 2 3 C1.34 3 0.68 3 0 3 C0 2.01 0 1.02 0 0 Z " fill="#A3C2B8" transform="translate(0,39)"/>
<path d="M0 0 C0.66 0 1.32 0 2 0 C2 0.99 2 1.98 2 3 C1.34 3 0.68 3 0 3 C0 2.01 0 1.02 0 0 Z " fill="#689A88" transform="translate(77,20)"/>
<path d="M0 0 C0.66 0 1.32 0 2 0 C2 0.99 2 1.98 2 3 C1.34 3 0.68 3 0 3 C0 2.01 0 1.02 0 0 Z " fill="#B2B2B2" transform="translate(0,20)"/>
<path d="M0 0 C0.66 0 1.32 0 2 0 C2 0.66 2 1.32 2 2 C1.34 2 0.68 2 0 2 C0 1.34 0 0.68 0 0 Z " fill="#ACB0B0" transform="translate(0,155)"/>
<path d="M0 0 C0.66 0 1.32 0 2 0 C2 0.66 2 1.32 2 2 C1.34 2 0.68 2 0 2 C0 1.34 0 0.68 0 0 Z " fill="#72A092" transform="translate(0,78)"/>
<path d="" fill="#FFFFFF" transform="translate(0,0)"/>
<path d="" fill="#FFFFFF" transform="translate(0,0)"/>
<path d="" fill="#FFFFFF" transform="translate(0,0)"/>
<path d="" fill="#FFFFFF" transform="translate(0,0)"/>
<path d="" fill="#FFFFFF" transform="translate(0,0)"/>
<path d="" fill="#FFFFFF" transform="translate(0,0)"/>
<path d="" fill="#FFFFFF" transform="translate(0,0)"/>
<path d="" fill="#FFFFFF" transform="translate(0,0)"/>
<path d="" fill="#FFFFFF" transform="translate(0,0)"/>
<path d="" fill="#FFFFFF" transform="translate(0,0)"/>
<path d="" fill="#FFFFFF" transform="translate(0,0)"/>
<path d="" fill="#FFFFFF" transform="translate(0,0)"/>
<path d="" fill="#FFFFFF" transform="translate(0,0)"/>
<path d="" fill="#FFFFFF" transform="translate(0,0)"/>
<path d="" fill="#FFFFFF" transform="translate(0,0)"/>
<path d="" fill="#FFFFFF" transform="translate(0,0)"/>
<path d="" fill="#FFFFFF" transform="translate(0,0)"/>
<path d="" fill="#FFFFFF" transform="translate(0,0)"/>
<path d="" fill="#FFFFFF" transform="translate(0,0)"/>
<path d="" fill="#FFFFFF" transform="translate(0,0)"/>
<path d="" fill="#FFFFFF" transform="translate(0,0)"/>
<path d="" fill="#FFFFFF" transform="translate(0,0)"/>
<path d="" fill="#FFFFFF" transform="translate(0,0)"/>
<path d="" fill="#FFFFFF" transform="translate(0,0)"/>
<path d="" fill="#FFFFFF" transform="translate(0,0)"/>
<path d="" fill="#FFFFFF" transform="translate(0,0)"/>
<path d="" fill="#FFFFFF" transform="translate(0,0)"/>
<path d="" fill="#FFFFFF" transform="translate(0,0)"/>
<path d="" fill="#FFFFFF" transform="translate(0,0)"/>
</svg>
